<svg width="126" height="43" viewBox="0 0 126 43" fill="none" xmlns="http://www.w3.org/2000/svg">
<path d="M0.564063 41.732V1.124H18.0361C28.4521 1.124 34.7881 9.188 34.7881 21.428C34.7881 33.668 28.4521 41.732 18.0361 41.732H0.564063ZM1.42806 21.188C9.73206 21.188 17.6041 30.116 17.6041 40.724C17.6041 30.116 25.4761 21.14 33.7801 21.14C25.4761 21.14 17.6041 12.116 17.6041 1.508C17.6041 12.116 9.73206 21.188 1.42806 21.188ZM38.3922 24.596V17.396H54.3282V24.596H38.3922Z" fill="#00D4FF"/>
<path d="M83.8309 26.036H93.4309V28.436C93.4309 37.028 86.3269 42.356 75.9109 42.356C65.4949 42.356 58.3909 36.548 58.3909 27.476V15.428C58.3909 6.356 65.4949 0.547999 75.9109 0.547999C86.3269 0.547999 93.4309 5.876 93.4309 14.468V16.388H83.8309V14.948C83.8309 10.484 80.9029 8.228 75.9109 8.228C70.9189 8.228 67.9909 10.964 67.9909 15.908V26.996C67.9909 31.94 70.9189 34.676 75.9109 34.676C80.9029 34.676 83.8309 32.42 83.8309 27.956V26.036Z" fill="#01EC7F"/>
<path d="M95.1297 41.732V35.492L114.09 8.804H95.6097V1.124H125.418V7.364L106.362 35.252C112.746 35.252 120.714 34.628 125.658 32.132V41.732H95.1297Z" fill="#AE55EC"/>
</svg>
