<svg width="168" height="56" viewBox="0 0 168 56" fill="none" xmlns="http://www.w3.org/2000/svg">
<path d="M0.41875 54.976V0.831997H23.7148C37.6028 0.831997 46.0508 11.584 46.0508 27.904C46.0508 44.224 37.6028 54.976 23.7148 54.976H0.41875ZM1.57075 27.584C12.6428 27.584 23.1388 39.488 23.1388 53.632C23.1388 39.488 33.6348 27.52 44.7068 27.52C33.6348 27.52 23.1388 15.488 23.1388 1.344C23.1388 15.488 12.6428 27.584 1.57075 27.584ZM50.8563 32.128V22.528H72.1043V32.128H50.8563Z" fill="#00D4FF"/>
<path d="M111.441 34.048H124.241V37.248C124.241 48.704 114.769 55.808 100.881 55.808C86.9933 55.808 77.5213 48.064 77.5213 35.968V19.904C77.5213 7.808 86.9933 0.0639992 100.881 0.0639992C114.769 0.0639992 124.241 7.168 124.241 18.624V21.184H111.441V19.264C111.441 13.312 107.537 10.304 100.881 10.304C94.2253 10.304 90.3213 13.952 90.3213 20.544V35.328C90.3213 41.92 94.2253 45.568 100.881 45.568C107.537 45.568 111.441 42.56 111.441 36.608V34.048Z" fill="#01EC7F"/>
<path d="M126.506 54.976V46.656L151.786 11.072H127.146V0.831997H166.89V9.152L141.482 46.336C149.994 46.336 160.618 45.504 167.21 42.176V54.976H126.506Z" fill="#AE55EC"/>
</svg>
