<svg width="28" height="28" viewBox="0 0 28 28" fill="none" xmlns="http://www.w3.org/2000/svg">
<path d="M13.9998 15.2294L8.08127 21.1482C7.91969 21.3096 7.71659 21.3922 7.47198 21.3961C7.22756 21.3998 7.02077 21.3172 6.8516 21.1482C6.68263 20.979 6.59814 20.7741 6.59814 20.5333C6.59814 20.2926 6.68263 20.0877 6.8516 19.9185L12.7704 14L6.8516 8.08151C6.69021 7.91993 6.60758 7.71683 6.60369 7.47222C6.59999 7.22781 6.68263 7.02101 6.8516 6.85185C7.02077 6.68287 7.22571 6.59839 7.46644 6.59839C7.70716 6.59839 7.9121 6.68287 8.08127 6.85185L13.9998 12.7706L19.9183 6.85185C20.0799 6.69046 20.283 6.60782 20.5276 6.60393C20.772 6.60024 20.9788 6.68287 21.1479 6.85185C21.3169 7.02101 21.4014 7.22596 21.4014 7.46668C21.4014 7.7074 21.3169 7.91235 21.1479 8.08151L15.2291 14L21.1479 19.9185C21.3093 20.0801 21.392 20.2832 21.3959 20.5278C21.3995 20.7722 21.3169 20.979 21.1479 21.1482C20.9788 21.3172 20.7738 21.4016 20.5331 21.4016C20.2924 21.4016 20.0874 21.3172 19.9183 21.1482L13.9998 15.2294Z" fill="#D4D4D4"/>
</svg>
